<?xml version="1.0" encoding="utf-8"?>
<!-- Generator: Adobe Illustrator 23.0.1, SVG Export Plug-In . SVG Version: 6.00 Build 0)  -->
<svg version="1.1" xmlns="http://www.w3.org/2000/svg" xmlns:xlink="http://www.w3.org/1999/xlink" x="0px" y="0px"
	 viewBox="0 0 40 40" style="enable-background:new 0 0 40 40;" xml:space="preserve">
<style type="text/css">
	.st0{display:none;}
	.st1{display:inline;fill:#7700A2;}
	.st2{fill:#FFFFFF;}
</style>
<g id="Layer_2" class="st0">
	<rect x="0" y="0" class="st1" width="40" height="40"/>
</g>
<g id="Layer_2_copy" class="st0">
	<rect y="0" class="st1" width="40" height="40"/>
</g>
<g id="Layer_1">
	<g>
		<path class="st2" d="M32.73,0H7.27C3.26,0,0,3.28,0,7.32v25.35C0,36.72,3.26,40,7.27,40h25.46c4.02,0,7.27-3.28,7.27-7.33V7.32
			C40,3.28,36.74,0,32.73,0z M36.67,21.56c0,2.99-2.4,5.42-5.36,5.42h-8l-2.73,4.47c0,0-0.02,0.06-0.09,0.14
			c-0.16,0.27-0.45,0.46-0.79,0.46c-0.34,0-0.63-0.19-0.8-0.46c-0.06-0.07-0.09-0.13-0.09-0.13l-2.73-4.47h-8
			c-2.96,0-5.36-2.43-5.36-5.42V8.7c0-2.99,2.4-5.42,5.36-5.42h23.21c2.96,0,5.36,2.43,5.36,5.42V21.56z"/>
		<path class="st2" d="M10.27,12.7c0,0-0.93,0-1.77,0.83v-3.32H6.43v8.72h2.1v-0.68c0,0,0.49,0.9,1.75,0.9c0,0,2.93-0.11,2.93-3.26
			C13.2,15.89,13.09,12.7,10.27,12.7z M9.81,17.3c-0.74,0-1.33-0.6-1.33-1.34c0-0.74,0.6-1.34,1.33-1.34c0.74,0,1.33,0.6,1.33,1.34
			C11.15,16.7,10.55,17.3,9.81,17.3z"/>
		<path class="st2" d="M13.87,10.01v2.02c0,0,0.95-0.04,0.95,1.74v5.16h2v-5.64C16.82,13.29,16.9,10.01,13.87,10.01z"/>
		<path class="st2" d="M21.71,12.73c0,0-3.43,0-3.43,3.23c0,0-0.11,3.19,3.43,3.19c0,0,3.51-0.01,3.51-3.19
			C25.22,15.96,25.34,12.73,21.71,12.73z M21.71,17.3c-0.74,0-1.33-0.6-1.33-1.34c0-0.74,0.6-1.34,1.33-1.34
			c0.74,0,1.33,0.6,1.33,1.34C23.05,16.7,22.45,17.3,21.71,17.3z"/>
		<path class="st2" d="M30.95,13.53c0,0-0.6-0.8-1.74-0.8c0,0-2.94-0.13-2.94,3.2c0,0-0.03,3.11,2.86,3.11c0,0,1.18,0.05,1.83-0.8
			v0.49c0,0,0.15,1.53-1.32,1.53h-0.5v1.85h0.81c0,0,3.04,0.03,3.04-3.27v-5.91h-2.02V13.53z M29.71,17.3
			c-0.74,0-1.33-0.6-1.33-1.34c0-0.74,0.6-1.34,1.33-1.34c0.74,0,1.33,0.6,1.33,1.34C31.05,16.7,30.45,17.3,29.71,17.3z"/>
	</g>
</g>
</svg>
