<?xml version="1.0" encoding="utf-8"?>
<!-- Generator: Adobe Illustrator 23.0.1, SVG Export Plug-In . SVG Version: 6.00 Build 0)  -->
<svg version="1.1" id="Layer_1" xmlns="http://www.w3.org/2000/svg" xmlns:xlink="http://www.w3.org/1999/xlink" x="0px" y="0px"
	 viewBox="0 0 38.55 38.26" style="enable-background:new 0 0 38.55 38.26;" xml:space="preserve">
<style type="text/css">
	.st0{fill:#FFFFFF;}
</style>
<g>
	<path class="st0" d="M31.54,0H7.01C3.14,0,0,3.14,0,7.01v24.24c0,3.87,3.14,7.01,7.01,7.01h24.53c3.87,0,7.01-3.14,7.01-7.01V7.01
		C38.54,3.14,35.41,0,31.54,0z M30.32,19.26c0,1.18-0.19,4.29-0.34,4.85c-0.42,1.68-1.21,2.33-2.67,2.57
		c-0.84,0.12-4.86,0.28-8.05,0.28h0.01c-3.19,0-7.22-0.16-8.05-0.28c-1.45-0.23-2.25-0.88-2.67-2.57c-0.14-0.57-0.34-3.67-0.34-4.85
		V19c0-1.18,0.19-4.29,0.34-4.85c0.42-1.69,1.21-2.34,2.67-2.57c0.83-0.12,4.85-0.28,8.04-0.28s7.21,0.16,8.05,0.28
		c1.46,0.23,2.24,0.88,2.67,2.57c0.14,0.56,0.34,3.67,0.34,4.85L30.32,19.26L30.32,19.26z"/>
	<polygon class="st0" points="16.62,21.96 21.92,19.06 16.62,16.3 	"/>
</g>
</svg>
