<?xml version="1.0" encoding="utf-8"?>
<!-- Generator: Adobe Illustrator 23.0.1, SVG Export Plug-In . SVG Version: 6.00 Build 0)  -->
<svg version="1.1" id="Layer_1" xmlns="http://www.w3.org/2000/svg" xmlns:xlink="http://www.w3.org/1999/xlink" x="0px" y="0px"
	 viewBox="0 0 38.24 38.24" style="enable-background:new 0 0 38.24 38.24;" xml:space="preserve">
<style type="text/css">
	.st0{fill:#FFFFFF;}
</style>
<g>
	<path class="st0" d="M19.1,14.52c-2.61,0-4.72,2.12-4.72,4.73c0,2.61,2.11,4.72,4.72,4.72c2.61,0,4.72-2.12,4.72-4.72
		C23.82,16.63,21.71,14.52,19.1,14.52z"/>
	<path class="st0" d="M25.17,7.79H13.02c-2.97,0-5.38,2.41-5.38,5.38v12.15c0,2.97,2.41,5.38,5.38,5.38h12.15
		c2.97,0,5.38-2.41,5.38-5.38V13.17C30.55,10.19,28.14,7.79,25.17,7.79z M19.1,26.53c-4.03,0-7.29-3.26-7.29-7.28
		s3.26-7.29,7.29-7.29c4.02,0,7.29,3.26,7.29,7.29C26.39,23.26,23.12,26.53,19.1,26.53z M26.63,13.37c-0.94,0-1.7-0.76-1.7-1.7
		s0.76-1.7,1.7-1.7s1.7,0.76,1.7,1.7C28.33,12.62,27.57,13.37,26.63,13.37z"/>
	<path class="st0" d="M37.49,5.14c-0.43-0.97-1.04-1.85-1.79-2.6C34.13,0.97,31.96,0,29.56,0H28h-9H9.99H8.68
		c-2.4,0-4.57,0.97-6.14,2.54c-0.75,0.74-1.36,1.62-1.79,2.6C0.27,6.22,0,7.42,0,8.68v0.69v5.07v8.15v5.74v1.23
		c0,1.46,0.36,2.85,1,4.05c0.41,0.77,0.93,1.47,1.54,2.09c1.57,1.57,3.74,2.54,6.14,2.54h1.31H19h9h1.56c2.4,0,4.57-0.97,6.14-2.54
		c0.61-0.61,1.13-1.32,1.54-2.09c0.64-1.21,1-2.59,1-4.05v-1.23v-5.74v-8.15V9.37V8.68C38.24,7.42,37.98,6.22,37.49,5.14z
		 M33.14,25.11c0,4.48-3.63,8.1-8.11,8.1H13.16c-4.48,0-8.11-3.62-8.11-8.1V13.24c0-4.48,3.63-8.11,8.11-8.11h11.87
		c4.48,0,8.11,3.63,8.11,8.11L33.14,25.11L33.14,25.11z"/>
</g>
</svg>
